<?xml version="1.0" encoding="iso-8859-1"?>
<!-- Uploaded to: SVG Repo, www.svgrepo.com, Generator: SVG Repo Mixer Tools -->
<svg fill="#000000" version="1.1" id="Layer_1" xmlns="http://www.w3.org/2000/svg" xmlns:xlink="http://www.w3.org/1999/xlink" 
	 viewBox="0 0 496.064 496.064" xml:space="preserve">
<g>
	<g>
		<g>
			<path d="M473.256,382.976C354.352,367.184,359.96,152.064,360.032,152.064h-0.16c0.032,0,0.16-2.696,0.16-4.128
				c0-81.608-50.24-147.936-112-147.936s-112,66.288-112,147.904c0,1.44,0.136,4.16,0.16,4.16h-0.16
				c0.072,0,5.784,215.104-113.232,230.912C9.824,384.712,0.032,396.12,0.032,409.432c0,6.04,2.08,12,5.856,16.72l22.28,27.872
				c5.096,6.368,12.696,10.04,20.856,10.04h7.008c46.824,0,84.472-14.544,111.888-43.24c2.88-3.016,5.568-6.136,8.112-9.32v12.56
				c0,39.704,32.304,72,72,72s72-32.296,72-72v-12.56c2.552,3.184,5.232,6.304,8.112,9.32c27.416,28.696,65.064,43.24,111.888,43.24
				h7.008c8.16,0,15.76-3.656,20.856-10.024l22.28-27.848c3.776-4.72,5.856-10.72,5.856-16.76
				C496.032,396.12,486.24,384.712,473.256,382.976z M256.032,16.624c17.4,1.984,33.48,10.36,47.024,23.44h-47.024V16.624z
				 M256.032,56.064h60.704c5.128,7.232,9.6,15.312,13.424,24h-74.128V56.064z M256.032,96.064h80.208
				c2.392,7.656,4.256,15.688,5.568,24h-85.776V96.064z M256.032,136.064h87.56c0.256,3.96,0.44,7.952,0.44,12
				c0,4.048-0.184,8.04-0.44,12h-87.56V136.064z M256.032,176.064h85.776c-1.312,8.312-3.168,16.344-5.568,24h-80.208V176.064z
				 M256.032,216.064h74.128c-3.824,8.688-8.296,16.768-13.424,24h-60.704V216.064z M256.032,256.064h47.024
				c-13.544,13.08-29.624,21.456-47.024,23.44V256.064z M240.032,216.064v24h-60.704c-5.128-7.232-9.6-15.312-13.416-24H240.032z
				 M159.824,200.064c-2.392-7.656-4.256-15.688-5.568-24h85.776v24H159.824z M240.032,256.064v23.44
				c-17.4-1.992-33.48-10.36-47.024-23.44H240.032z M280.024,289.832c0.344,12.872,2.152,36.44,9.848,62.232h-83.68
				c7.696-25.792,9.504-49.352,9.848-62.232c10.144,4.008,20.872,6.232,31.992,6.232C259.152,296.064,269.88,293.84,280.024,289.832
				z M295.376,368.064c2.088,5.336,4.448,10.688,7.136,16H193.56c2.68-5.312,5.048-10.664,7.136-16H295.376z M240.032,16.624v23.44
				h-47.024C206.552,26.984,222.632,18.608,240.032,16.624z M179.32,56.064h60.712v24h-74.128
				C169.728,71.376,174.2,63.296,179.32,56.064z M159.824,96.064h80.208v24h-85.776C155.568,111.752,157.432,103.72,159.824,96.064z
				 M152.472,136.064h87.56v24h-87.56c-0.256-3.96-0.44-7.952-0.44-12C152.032,144.016,152.216,140.024,152.472,136.064z
				 M156.288,409.84c-24.28,25.368-58.008,38.224-100.256,38.224h-7.008c-3.272,0-6.32-1.472-8.36-4.024l-22.28-27.848
				c-1.52-1.896-2.352-4.272-2.352-6.688c0-5.328,3.824-9.848,8.888-10.528c88.728-11.784,115.76-113.312,123.848-182.616
				c11.256,28.456,29.312,51.4,51.304,65.248C200.248,291.648,199.928,364.24,156.288,409.84z M248.04,480.064
				c-15.208,0-29.024-6.12-39.12-16h78.232C277.048,473.944,263.248,480.064,248.04,480.064z M298.552,448.064h-101.04
				c-2.376-4.976-4.024-10.352-4.84-16h110.72C302.576,437.712,300.928,443.088,298.552,448.064z M304.032,416.064h-112v-16h112
				V416.064z M477.688,416.192l-22.28,27.848c-2.048,2.552-5.096,4.024-8.368,4.024h-7.008c-42.248,0-75.976-12.856-100.256-38.224
				c-43.64-45.592-43.96-118.192-43.784-128.232c21.984-13.848,40.048-36.792,51.304-65.248
				c8.088,69.296,35.12,170.832,123.848,182.616c5.064,0.672,8.888,5.2,8.888,10.528C480.032,411.92,479.2,414.296,477.688,416.192z
				"/>
			<rect x="256.032" y="320.064" width="16" height="16"/>
			<rect x="224.032" y="320.064" width="16" height="16"/>
		</g>
	</g>
</g>
</svg>