<?xml version="1.0" encoding="iso-8859-1"?>
<!-- Uploaded to: SVG Repo, www.svgrepo.com, Generator: SVG Repo Mixer Tools -->
<svg fill="#000000" height="800px" width="800px" version="1.1" id="Layer_1" xmlns="http://www.w3.org/2000/svg" xmlns:xlink="http://www.w3.org/1999/xlink" 
	 viewBox="0 0 511.999 511.999" xml:space="preserve">
<g>
	<g>
		<path d="M506.303,178.075c-0.221-6.417-0.095-11.677-0.543-16.168c-1.53-15.307-5.337-23.996-14.545-33.204L400.83,38.317
			c-3.194-3.195-7.55-4.895-11.813-4.893h-26.459L334.096,4.903c-3.357-3.362-7.987-5.141-12.731-4.877
			c-0.03,0.001-0.06,0.008-0.09,0.01H189.658c-0.03-0.002-0.06-0.008-0.09-0.01c-4.737-0.263-9.375,1.514-12.731,4.877
			l-28.462,28.522h-26.458c-4.256-0.002-8.617,1.695-11.813,4.893l-90.385,90.385c-9.46,9.459-14.669,22.036-14.669,35.414V350.62
			c0,14.479,4.43,26.167,13.165,34.739c14.51,14.238,37.139,16.404,63.846,16.404c7.314,0,14.833-0.059,23.155-0.209v60.362
			c0,27.616,22.467,50.083,50.083,50.083h200.334c27.616,0,50.083-22.467,50.083-50.083v-61.213H455.8
			c27.616,0,51.085-22.467,51.085-50.083C506.885,252.921,507.237,205.173,506.303,178.075z M287.515,33.313l-32.049,40.17
			l-32.049-40.17H287.515z M121.911,133.592c-9.22,0-16.695,7.475-16.695,16.694c0,24.436,0,11.363,0,26.474l-4.89-4.89
			c-6.519-6.52-17.09-6.52-23.609,0c-6.52,6.52-6.52,17.09,0,23.609l28.499,28.499c0,5.636,0,137.875,0,144.515
			c-26.43,0.47-55.28,1.215-63.616-6.965c-0.782-0.767-3.162-3.103-3.162-10.908V164.116c0-4.458,1.736-8.651,4.889-11.804
			l85.498-85.609h26.474c4.434,0,8.686-1.652,11.818-4.79l20.166-20.208l46.805,58.503l-53.421,66.773h-42.06v-16.695
			C138.606,141.066,131.131,133.592,121.911,133.592z M372.328,461.917c0,9.205-7.489,16.694-16.694,16.694H155.299
			c-9.205,0-16.694-7.489-16.694-16.694V333.814h233.723V461.917z M372.328,233.759h-150.25c-9.22,0-16.694,7.475-16.694,16.695
			c0,9.22,7.475,16.583,16.694,16.583h150.25v33.5H138.605v-33.5h16.694c9.22,0,16.695-7.363,16.695-16.583
			c0-9.22-7.475-16.694-16.695-16.694h-16.694v-33.5h233.723V233.759z M472.495,350.62c0,9.205-7.489,16.695-16.694,16.695h-50.083
			c0-5.641,0-137.006,0-143.336l28.499-28.499c6.52-6.52,6.52-17.09,0-23.609c-6.519-6.52-17.09-6.52-23.609,0l-4.89,4.89
			c0-15.267,0-1.812,0-26.474c0-9.22-7.475-16.695-16.694-16.695c-9.22,0-16.695,7.475-16.695,16.695v16.694H223.423l44.881-56.099
			c0.006-0.007,0.01-0.013,0.016-0.02l55.329-69.159l20.166,20.208c3.132,3.139,7.383,4.79,11.818,4.79h26.474l85.498,85.609
			c3.025,3.025,3.933,4.044,4.819,12.916C472.637,167.351,472.495,245.869,472.495,350.62z"/>
	</g>
</g>
</svg>